<?xml version="1.0" standalone="no"?>
<!DOCTYPE svg PUBLIC "-//W3C//DTD SVG 20010904//EN"
 "http://www.w3.org/TR/2001/REC-SVG-20010904/DTD/svg10.dtd">
<svg version="1.0" xmlns="http://www.w3.org/2000/svg"
viewBox="0 0 512.000000 512.000000"
 preserveAspectRatio="xMidYMid meet">

<g transform="translate(0.000000,512.000000) scale(0.100000,-0.100000)"
fill="#000000" stroke="none">
<path d="M2630 5106 c-135 -36 -220 -145 -228 -292 -4 -73 -1 -88 23 -143 35
-76 104 -142 181 -170 53 -20 73 -21 737 -21 l682 0 -615 -615 -614 -614 -36
21 c-335 204 -620 288 -980 288 -479 0 -918 -181 -1254 -516 -275 -275 -442
-608 -507 -1009 -17 -102 -17 -405 0 -510 80 -510 358 -947 781 -1227 217
-144 460 -237 725 -279 105 -17 408 -17 510 0 401 65 734 232 1009 507 335
336 516 775 516 1254 0 345 -89 659 -266 943 l-44 72 612 612 613 613 5 -692
c5 -684 5 -694 27 -740 32 -70 94 -131 164 -163 55 -24 70 -27 143 -23 127 7
219 67 273 176 l28 57 0 1120 0 1120 -26 56 c-33 71 -87 125 -158 158 l-56 26
-1100 2 c-847 1 -1110 -1 -1145 -11z m-673 -2196 c34 -6 101 -22 148 -35 418
-121 734 -482 805 -918 15 -92 12 -272 -5 -373 -62 -353 -296 -665 -623 -828
-130 -65 -351 -116 -503 -116 -186 0 -425 67 -583 163 -239 145 -422 381 -506
652 -26 87 -50 239 -50 324 0 152 51 373 116 503 82 165 240 347 381 441 136
90 291 154 439 181 94 17 294 20 381 6z"/>
</g>
</svg>
